<svg xmlns="http://www.w3.org/2000/svg" width="147.113" height="60.044" viewBox="0 0 147.113 60.044">
  <g fill="#29abe2">
    <path d="m35.885 60.044 7.824-30.009h8.538l11.468 16.342 4.259-16.342h8.171l-7.379 30.009h-7.867l-12.22-17.026-4.229 17.024Z"></path>
    <path d="m109.058 30.035-1.753 7.722H90.36a7.691 7.691 0 0 0-6.476 4.918c-1.655 4.625-1.9 9.592 1.9 9.592h16.847l-2.045 7.777H81.597s-7.547-1.5-7.985-9.189 4.038-16.02 10.173-19.282a21.569 21.569 0 0 1 7.538-1.538Z"></path>
    <path d="M122.317 37.757h16.6l1.753-7.722h-17.4a15.621 15.621 0 0 0-6.8 1.538c-5.563 2.958-10.351 10.082-10.871 17.12l-.062.11h.054a16.592 16.592 0 0 0-.028 2.051c.438 7.694 7.985 9.189 7.985 9.189h18.99l2.045-7.777h-16.842c-2.034 0-2.9-1.43-3.021-3.464h20.919l1.885-7.25h-21.165a7.856 7.856 0 0 1 5.958-3.795Z"></path>
  </g>
  <path fill="#194a7d" d="M29.763 14.714h-2.225L15.849 24.957h9.05l-9.05 35.087h13.918l11.146-45.33Z"></path>
  <path fill="#29abe2" d="M37.023 7.259c11.085 0 20.879 6.012 26.824 15.211h8.891A37.915 37.915 0 0 0 37.878 0C16.959 0 0 16.537 0 36.938a36.183 36.183 0 0 0 7.635 22.237 38.5 38.5 0 0 1-3.447-16.013c0-19.828 14.701-35.903 32.835-35.903Z"></path>
  <g>
    <path fill="#29abe2" d="M140.776 55.457a3.268 3.268 0 0 1 .716-1.036 3.331 3.331 0 0 1 2.33-.939 3.266 3.266 0 0 1 1.273.25 3.267 3.267 0 0 1 1.751 1.725 3.16 3.16 0 0 1 .263 1.29 3.233 3.233 0 0 1-.263 1.312 3.331 3.331 0 0 1-.711 1.045 3.2 3.2 0 0 1-1.045.689 3.306 3.306 0 0 1-1.273.246 3.342 3.342 0 0 1-1.277-.246 3.233 3.233 0 0 1-1.053-.689 3.3 3.3 0 0 1-.716-1.045 3.229 3.229 0 0 1-.263-1.312 3.156 3.156 0 0 1 .268-1.29Zm.54 2.41a2.722 2.722 0 0 0 .571.891 2.657 2.657 0 0 0 1.935.807 2.612 2.612 0 0 0 1.063-.215 2.66 2.66 0 0 0 .856-.592 2.732 2.732 0 0 0 .57-.891 2.969 2.969 0 0 0 .207-1.119 2.89 2.89 0 0 0-.207-1.1 2.662 2.662 0 0 0-1.426-1.47 2.622 2.622 0 0 0-1.062-.215 2.662 2.662 0 0 0-2.506 1.685 2.9 2.9 0 0 0-.206 1.1 2.979 2.979 0 0 0 .205 1.124Zm2.708-3.024a1.57 1.57 0 0 1 1.014.272 1.009 1.009 0 0 1 .329.826.933.933 0 0 1-.29.759 1.3 1.3 0 0 1-.72.285l1.1 1.695h-.641l-1.044-1.651h-.632v1.651h-.6v-3.833Zm-.263 1.7q.2 0 .381-.013a.974.974 0 0 0 .321-.075.508.508 0 0 0 .224-.189.647.647 0 0 0 .083-.355.556.556 0 0 0-.075-.307.512.512 0 0 0-.193-.176.863.863 0 0 0-.272-.083 2.127 2.127 0 0 0-.3-.022h-.79v1.22Z"></path>
  </g>
</svg>
