<?xml version="1.0" encoding="UTF-8"?>
<svg width="874px" height="458px" viewBox="0 0 874 458" version="1.1" xmlns="http://www.w3.org/2000/svg" xmlns:xlink="http://www.w3.org/1999/xlink">
    <title>frames</title>
    <g id="Page-1" stroke="none" stroke-width="1" fill="none" fill-rule="evenodd">
        <g id="Desktop-HD" transform="translate(-283.000000, -283.000000)">
            <g id="frames" transform="translate(283.000000, 283.000000)">
                <path d="M285.888168,16.5361043 C286.206216,17.4765001 286.467148,18.4356245 286.66951,19.4081291 L289.202,31.582 L182.805272,68.2930677 C163.455088,74.9696406 152.122387,95.0905933 156.303094,115.182137 L218.625,414.689 L101.02,455.267741 L99.7850352,455.693894 C87.146623,460.054642 73.4012556,453.241298 69.0838995,440.475864 C68.7658511,439.535468 68.5049187,438.576344 68.3025566,437.60384 L0.520315007,111.857577 C-1.99252666,99.7814222 4.80701427,87.7089917 16.3682621,83.7199075 L255.187032,1.31807447 C257.714714,0.445924955 260.286675,0.0207391009 262.818634,0.000740893985 L263.198118,0.000774848288 C273.182724,0.0814185131 282.477456,6.45141192 285.888168,16.5361043 Z M292.554,47.688 L306.598,115.181741 L354.451752,345.154392 C356.964594,357.230546 350.165053,369.302977 338.603805,373.292061 L234.177,409.323 L172.280189,111.857577 C169.767347,99.7814222 176.566888,87.7089917 188.128136,83.7199075 L292.554,47.688 Z" id="frame4" fill="#0047FF"></path>
                <path d="M457.648038,16.5361043 C457.966089,17.4765001 458.227026,18.4356245 458.429384,19.4081291 L461.185874,32.656 L357.900967,68.2930677 C338.550783,74.9696406 327.218082,95.0905933 331.398789,115.182137 L393.497874,413.615 L272.779874,455.267741 L271.544909,455.693894 C258.906496,460.054642 245.16113,453.241298 240.843773,440.475864 C240.525725,439.535468 240.264793,438.576344 240.062431,437.60384 L172.280189,111.857577 C169.767347,99.7814222 176.566888,87.7089917 188.128136,83.7199075 L426.946906,1.31807447 C429.474588,0.445924955 432.046549,0.0207391009 434.578508,0.000740893973 L434.957991,0.000774848281 C444.942596,0.0814185131 454.237326,6.45141192 457.648038,16.5361043 Z M464.536874,48.762 L526.211624,345.154392 C528.724471,357.230546 521.924924,369.302977 510.363682,373.292061 L409.049874,408.249 L347.375884,111.857577 C344.863043,99.7814222 351.662583,87.7089917 363.223831,83.7199075 L464.536874,48.762 Z" id="frame3" fill="#1E5DFF"></path>
                <path d="M632.743738,16.5361043 C633.061785,17.4765001 633.322718,18.4356245 633.52508,19.4081291 L636.057569,31.582 L529.660841,68.2930677 C510.310657,74.9696406 498.977956,95.0905933 503.158663,115.182137 L565.480569,414.689 L447.875569,455.267741 L446.640604,455.693894 C434.002192,460.054642 420.256825,453.241298 415.939469,440.475864 C415.62142,439.535468 415.360488,438.576344 415.158126,437.60384 L347.375884,111.857577 C344.863043,99.7814222 351.662583,87.7089917 363.223831,83.7199075 L602.042601,1.31807447 C604.570284,0.445924955 607.142244,0.0207391009 609.674204,0.000740893985 L610.053687,0.000774848288 C620.038293,0.0814185131 629.333026,6.45141192 632.743738,16.5361043 Z M639.409569,47.688 L653.453569,115.181741 L701.307321,345.154392 C703.820163,357.230546 697.020622,369.302977 685.459374,373.292061 L581.032569,409.323 L519.135758,111.857577 C516.622917,99.7814222 523.422457,87.7089917 534.983705,83.7199075 L639.409569,47.688 Z" id="frame2" fill="#3D73FF"></path>
                <path d="M804.503608,16.5361043 C804.821658,17.4765001 805.082595,18.4356245 805.284954,19.4081291 L873.067194,345.154392 C875.58004,357.230546 868.780493,369.302977 857.219251,373.292061 L618.400478,455.693894 C605.762065,460.054642 592.016699,453.241298 587.699343,440.475864 C587.381294,439.535468 587.120362,438.576344 586.918,437.60384 L519.135758,111.857577 C516.622917,99.7814222 523.422457,87.7089917 534.983705,83.7199075 L773.802475,1.31807447 C786.440887,-3.04267312 800.186251,3.7706709 804.503608,16.5361043 Z" id="frame1" fill="#6C95FF"></path>
            </g>
        </g>
    </g>
</svg>