<?xml version="1.0" encoding="UTF-8" standalone="no"?>
<!DOCTYPE svg PUBLIC "-//W3C//DTD SVG 1.1//EN" "http://www.w3.org/Graphics/SVG/1.1/DTD/svg11.dtd">
<svg width="100%" height="100%" viewBox="0 0 191 191" version="1.1" xmlns="http://www.w3.org/2000/svg" xmlns:xlink="http://www.w3.org/1999/xlink" xml:space="preserve" xmlns:serif="http://www.serif.com/" style="fill-rule:evenodd;clip-rule:evenodd;stroke-linejoin:round;stroke-miterlimit:2;"><rect x="0" y="0" width="190.34" height="190.249" style="fill:#132533;"/><path d="M90.967,99.739c-1.072,-2.769 -2.553,-5.203 -4.463,-7.303c-1.906,-2.094 -4.169,-3.747 -6.79,-4.956c-2.616,-1.203 -5.519,-1.803 -8.719,-1.803c-3.197,-0 -6.1,0.6 -8.719,1.803c-2.622,1.209 -4.859,2.84 -6.722,4.89c-1.865,2.053 -3.29,4.444 -4.259,7.169c-0.981,2.725 -1.463,5.647 -1.463,8.769c0,3.134 0.525,6.1 1.597,8.915c1.06,2.81 2.544,5.244 4.456,7.304c1.91,2.053 4.172,3.678 6.791,4.881c2.619,1.209 5.478,1.809 8.584,1.809c3.282,0 6.235,-0.6 8.854,-1.809c2.621,-1.203 4.862,-2.828 6.728,-4.881c1.859,-2.06 3.278,-4.447 4.256,-7.169c0.975,-2.725 1.462,-5.65 1.462,-8.781c0,-3.125 -0.534,-6.069 -1.593,-8.838m15.056,22.906c-1.922,4.469 -4.55,8.372 -7.903,11.719c-3.347,3.353 -7.347,6.013 -11.985,7.972c-4.646,1.966 -9.69,2.953 -15.14,2.953c-5.356,0 -10.335,-0.966 -14.938,-2.881c-4.603,-1.922 -8.572,-4.556 -11.915,-7.91c-3.36,-3.346 -5.972,-7.228 -7.838,-11.65c-1.881,-4.425 -2.822,-9.181 -2.822,-14.271c0,-5.091 0.966,-9.885 2.888,-14.397c1.915,-4.513 4.547,-8.438 7.903,-11.791c3.347,-3.35 7.316,-6.006 11.919,-7.972c4.6,-1.956 9.625,-2.944 15.068,-2.944c5.45,0 10.475,0.963 15.075,2.879c4.591,1.921 8.572,4.556 11.919,7.903c3.353,3.356 5.966,7.259 7.835,11.725c1.878,4.468 2.821,9.237 2.821,14.328c0,5.094 -0.965,9.872 -2.887,14.337" style="fill:#fff;fill-rule:nonzero;"/><path d="M0,-0l0,30.609l16.347,0l0,-14.262l157.678,-0l0,157.678l-157.678,-0l0,-14.263l-16.347,0l0,30.61l190.372,-0l0,-190.372l-190.372,-0Z" style="fill:#1f8efe;fill-rule:nonzero;"/><rect x="-0" y="46.692" width="16.347" height="15.406" style="fill:#fff;"/><rect x="-0" y="72.948" width="16.347" height="70.731" style="fill:#fff;"/></svg>