<?xml version="1.0" encoding="UTF-8" standalone="no"?>
<!DOCTYPE svg PUBLIC "-//W3C//DTD SVG 1.1//EN" "http://www.w3.org/Graphics/SVG/1.1/DTD/svg11.dtd">
<svg width="100%" height="100%" viewBox="0 0 725 207" version="1.1" xmlns="http://www.w3.org/2000/svg" xmlns:xlink="http://www.w3.org/1999/xlink" xml:space="preserve" xmlns:serif="http://www.serif.com/" style="fill-rule:evenodd;clip-rule:evenodd;stroke-linejoin:round;stroke-miterlimit:2;"><path d="M34.696,129.489c-0,3.131 0.756,5.394 2.272,6.781c1.519,1.394 3.665,2.085 6.434,2.085c3.478,-0 6.835,-0.8 10.047,-2.413l0,13.266c-2.056,1.162 -4.244,2.053 -6.569,2.675c-2.322,0.625 -5,0.937 -8.034,0.937c-2.947,0 -5.688,-0.356 -8.209,-1.068c-2.516,-0.719 -4.707,-1.885 -6.547,-3.497c-1.847,-1.61 -3.263,-3.732 -4.257,-6.372c-0.987,-2.644 -1.484,-5.931 -1.484,-9.872l0,-37.328l-8.975,-0l0,-13.794l8.975,0l0,-19.431l16.347,-0l-0,19.431l19.019,0l-0,13.794l-19.019,-0l-0,34.806Z" style="fill:#fff;fill-rule:nonzero;"/><path d="M86.265,151.618l-16.341,-0l0,-97.794l16.341,-0l-0,38.159c1.159,-1.715 2.425,-3.312 3.806,-4.794c1.381,-1.493 2.984,-2.821 4.809,-3.993c1.825,-1.172 3.828,-2.091 6.013,-2.769c2.181,-0.675 4.65,-1.016 7.412,-1.016c8.016,0 14.203,2.457 18.569,7.369c4.363,4.913 6.544,11.519 6.544,19.831l-0,45.007l-16.341,-0l0,-40.097c0,-5.522 -1.306,-9.778 -3.919,-12.763c-2.612,-2.984 -6.309,-4.475 -11.087,-4.475c-4.697,0 -8.497,1.538 -11.422,4.606c-2.922,3.082 -4.384,7.379 -4.384,12.9l-0,39.829Z" style="fill:#fff;fill-rule:nonzero;"/><path d="M153.913,80.888l16.347,-0l-0,70.728l-16.347,-0l0,-70.728Zm-0.666,-26.257l17.55,0l0,15.406l-17.55,0l0,-15.406Z" style="fill:#fff;fill-rule:nonzero;"/><path d="M207.635,151.618l-16.341,-0l0,-70.729l16.341,0l-0,11.094c1.159,-1.715 2.425,-3.312 3.806,-4.794c1.381,-1.493 2.984,-2.821 4.809,-3.993c1.825,-1.172 3.828,-2.091 6.013,-2.769c2.181,-0.675 4.65,-1.016 7.412,-1.016c8.016,0 14.203,2.457 18.569,7.369c4.363,4.913 6.544,11.519 6.544,19.831l-0,45.007l-16.341,-0l0,-40.097c0,-5.522 -1.306,-9.778 -3.919,-12.763c-2.612,-2.984 -6.309,-4.475 -11.087,-4.475c-4.697,0 -8.497,1.538 -11.422,4.606c-2.922,3.082 -4.384,7.379 -4.384,12.9l-0,39.829Z" style="fill:#fff;fill-rule:nonzero;"/><path d="M326.259,104.717c-1.118,-2.435 -2.612,-4.497 -4.49,-6.182c-1.878,-1.684 -4.081,-3 -6.628,-3.925c-2.544,-0.937 -5.21,-1.403 -7.969,-1.403c-2.863,0 -5.5,0.466 -7.903,1.403c-2.413,0.925 -4.535,2.241 -6.366,3.925c-1.834,1.685 -3.259,3.725 -4.29,6.116c-1.025,2.397 -1.538,5.059 -1.538,7.984c0,2.932 0.534,5.588 1.606,7.985c1.075,2.39 2.5,4.459 4.288,6.181c1.787,1.731 3.903,3.066 6.365,3.994c2.45,0.934 5.063,1.4 7.838,1.4c2.759,-0 5.425,-0.466 7.969,-1.4c2.547,-0.928 4.75,-2.263 6.628,-3.994c1.878,-1.722 3.372,-3.763 4.49,-6.113c1.113,-2.353 1.679,-4.996 1.679,-7.918c-0,-2.925 -0.566,-5.61 -1.679,-8.053m7.704,59.896c-6.613,5.8 -15.985,8.704 -28.135,8.704c-11.784,-0 -22.328,-2.813 -31.612,-8.441l6.025,-12.191c3.756,2.322 7.681,4.157 11.793,5.5c4.104,1.338 8.572,2.003 13.394,2.003c7.235,0 12.772,-1.84 16.61,-5.512c3.843,-3.681 5.765,-9.106 5.765,-16.291l0,-5.515c-2.953,3.878 -6.39,7.037 -10.315,9.472c-3.932,2.434 -8.804,3.65 -14.604,3.65c-4.203,-0 -8.215,-0.735 -12.059,-2.213c-3.837,-1.475 -7.259,-3.637 -10.25,-6.5c-2.991,-2.856 -5.378,-6.337 -7.162,-10.447c-1.788,-4.106 -2.679,-8.797 -2.679,-14.062c0,-5.272 0.891,-9.96 2.679,-14.063c1.784,-4.112 4.171,-7.594 7.162,-10.45c2.991,-2.856 6.434,-5.047 10.316,-6.569c3.887,-1.512 7.881,-2.278 11.993,-2.278c5.982,0 10.916,1.197 14.804,3.585c3.881,2.39 7.206,5.253 9.975,8.593l-0,-10.7l16.215,0l0,56.257c0,12.506 -3.309,21.662 -9.915,27.468" style="fill:#fff;fill-rule:nonzero;"/><path d="M412.595,111.292c-0.268,-2.582 -0.853,-5.016 -1.743,-7.294c-0.891,-2.278 -2.1,-4.247 -3.616,-5.9c-1.519,-1.65 -3.331,-2.969 -5.431,-3.947c-2.091,-0.981 -4.482,-1.478 -7.16,-1.478c-5.003,-0 -9.137,1.722 -12.393,5.156c-3.266,3.444 -5.25,7.928 -5.96,13.463l36.303,-0Zm-29.209,24.05c3.666,3.081 8.125,4.625 13.4,4.625c4.019,-0 7.497,-0.722 10.45,-2.147c2.95,-1.432 5.847,-3.532 8.706,-6.297l9.513,8.444c-3.4,4.015 -7.435,7.228 -12.125,9.64c-4.691,2.41 -10.294,3.622 -16.816,3.622c-5.091,0 -9.841,-0.9 -14.262,-2.678c-4.425,-1.791 -8.263,-4.294 -11.525,-7.506c-3.257,-3.219 -5.825,-7.078 -7.697,-11.591c-1.875,-4.503 -2.819,-9.528 -2.819,-15.072c-0,-5.09 0.853,-9.862 2.544,-14.331c1.7,-4.466 4.087,-8.369 7.172,-11.722c3.078,-3.35 6.721,-6.006 10.915,-7.972c4.2,-1.959 8.844,-2.947 13.935,-2.947c5.628,0 10.562,1.032 14.796,3.082c4.247,2.053 7.772,4.821 10.591,8.309c2.813,3.481 4.928,7.547 6.359,12.187c1.425,4.644 2.147,9.513 2.147,14.607c0,0.709 -0.022,1.431 -0.068,2.14c-0.044,0.716 -0.11,1.472 -0.197,2.282l-51.978,-0c0.978,5.8 3.3,10.246 6.959,13.325" style="fill:#fff;fill-rule:nonzero;"/><path d="M461.35,151.618l-16.341,-0l0,-70.729l16.341,0l0,15.938c2.234,-5.356 5.403,-9.647 9.516,-12.859c4.1,-3.213 9.284,-4.691 15.54,-4.422l0,17.15l-0.937,-0c-3.578,-0 -6.835,0.578 -9.782,1.734c-2.943,1.166 -5.49,2.909 -7.634,5.225c-2.147,2.331 -3.8,5.253 -4.956,8.778c-1.166,3.528 -1.747,7.613 -1.747,12.263l0,26.922Z" style="fill:#fff;fill-rule:nonzero;"/><rect x="487.213" y="133.266" width="17.809" height="18.353" style="fill:#fff;"/><path d="M616.221,107.678c-1.072,-2.769 -2.553,-5.203 -4.463,-7.303c-1.906,-2.094 -4.169,-3.747 -6.79,-4.956c-2.616,-1.203 -5.519,-1.803 -8.719,-1.803c-3.197,-0 -6.1,0.6 -8.719,1.803c-2.622,1.209 -4.859,2.84 -6.722,4.89c-1.865,2.054 -3.29,4.444 -4.259,7.169c-0.981,2.725 -1.463,5.647 -1.463,8.769c0,3.134 0.525,6.1 1.597,8.916c1.06,2.809 2.544,5.243 4.456,7.303c1.91,2.053 4.172,3.678 6.791,4.881c2.619,1.209 5.478,1.809 8.584,1.809c3.282,0 6.235,-0.6 8.854,-1.809c2.621,-1.203 4.862,-2.828 6.728,-4.881c1.859,-2.06 3.278,-4.447 4.256,-7.169c0.975,-2.725 1.462,-5.65 1.462,-8.781c0,-3.125 -0.534,-6.069 -1.593,-8.838m15.056,22.906c-1.922,4.469 -4.55,8.372 -7.903,11.719c-3.347,3.353 -7.347,6.013 -11.985,7.972c-4.646,1.966 -9.69,2.953 -15.14,2.953c-5.356,0 -10.335,-0.965 -14.938,-2.881c-4.603,-1.922 -8.572,-4.556 -11.915,-7.909c-3.36,-3.347 -5.972,-7.229 -7.838,-11.65c-1.881,-4.425 -2.822,-9.182 -2.822,-14.272c0,-5.091 0.966,-9.885 2.888,-14.397c1.915,-4.513 4.547,-8.438 7.903,-11.791c3.347,-3.35 7.315,-6.006 11.919,-7.972c4.6,-1.956 9.625,-2.943 15.068,-2.943c5.45,-0 10.475,0.962 15.075,2.878c4.591,1.922 8.572,4.556 11.919,7.903c3.353,3.356 5.966,7.259 7.834,11.725c1.879,4.469 2.822,9.237 2.822,14.328c0,5.094 -0.965,9.872 -2.887,14.337" style="fill:#fff;fill-rule:nonzero;"/><path d="M525.254,7.939l0,30.609l16.347,0l-0,-14.262l157.678,-0l0,157.678l-157.678,0l-0,-14.262l-16.347,-0l0,30.609l190.372,-0l-0,-190.372l-190.372,0Z" style="fill:#1f8efe;fill-rule:nonzero;"/><rect x="525.254" y="54.631" width="16.347" height="15.406" style="fill:#fff;"/><rect x="525.254" y="80.888" width="16.347" height="70.731" style="fill:#fff;"/></svg>